# xmcd
#
# Track frame offsets:
#	150
#	20370
#	44526
#
# Disc length: 872 seconds
#
# Revision: 0
# Processed by: cddbd v1.5.2PL0 Copyright (c) Steve Scherf et al.
# Submitted via: audiograbber 1.83.01
#
DISCID=1d036603
DTITLE=Unless - Unless [CDS)
DYEAR=1997
DGENRE=Pop
TTITLE0=Kotimatka
TTITLE1=Surulliset Silmät
TTITLE2=Varjoja
EXTD=TR.
EXTT0=
EXTT1=
EXTT2=
PLAYORDER=
